# xmcd
#
# Track frame offsets:
#	182
#	18085
#	36300
#	52647
#	76092
#	87945
#	120492
#	135380
#	155897
#	175735
#	200777
#	236595
#	256295
#	272972
#	285880
#	307622
#
# Disc length: 4408 seconds
#
# Revision: 0
# Processed by: cddbd v1.4PL0 Copyright (c) Steve Scherf et al.
# Submitted via: EasyCDDAExtractor 4.6.9.1
#
DISCID=c4113610
DTITLE=Sandy Denny - The Best Of Sandy Denny
DYEAR=1987
DGENRE=Blues
TTITLE0=Listen, Listen
TTITLE1=The Lady
TTITLE2=One Way Donkey Ride
TTITLE3=It'll Take A Long Time
TTITLE4=Farewell, Farewell
TTITLE5=Tam Lin
TTITLE6=The Pond Aand The Stream
TTITLE7=Late November
TTITLE8=Solo
TTITLE9=The Sea
TTITLE10=The Banks Of The Nile
TTITLE11=Next Time Around
TTITLE12=For Shame Of Doing Wrong
TTITLE13=Stranger To Himself
TTITLE14=I'm A Dreamer
TTITLE15=Who Knows Where The Time Goes
EXTD=
EXTT0=
EXTT1=
EXTT2=
EXTT3=
EXTT4=
EXTT5=
EXTT6=
EXTT7=
EXTT8=
EXTT9=
EXTT10=
EXTT11=
EXTT12=
EXTT13=
EXTT14=
EXTT15=
PLAYORDER=
